<svg id="emptyheart" xmlns="http://www.w3.org/2000/svg" viewBox="0 0 170.63 162.27"><path id="emptyheart-2" data-name="emptyheart" d="M682.91,322.64c.65-.71,1.82-1.93,2.94-3.19,13-14.55,29.45-18.19,47.53-13.76,16.94,4.16,26.72,16.48,31.51,32.76,5,17,2.66,33.44-5,49.22-8.44,17.48-20.65,32.18-35,44.89-12.78,11.3-26.47,21.58-39.77,32.31-1.6,1.29-3.21,1.9-5.15.51-22.2-15.84-43.45-32.77-60.56-54.26-9.67-12.14-17.71-25.2-20.95-40.67-3-14.22-1.85-28,4.54-41.22,15.66-32.29,56-30.48,72.82-12.6A80.68,80.68,0,0,0,682.91,322.64ZM682.06,462c13.74-9.09,33.55-25.4,45.46-37.38,11.49-11.54,21.77-24,28.85-38.79,7.85-16.4,9.63-33.31,3.24-50.59-12.5-33.78-52.66-33.21-69-14.94-2,2.24-4.12,4.36-6.06,6.65-1.61,1.92-3,2-4.62,0-1.87-2.21-3.93-4.26-5.85-6.44-16.35-18.56-56.72-19.18-69.25,14.62-7.46,20.11-3.95,39.2,6.66,57.2C628.81,421.8,655.05,442.26,682.06,462Z" transform="translate(-596.9 -303.9)"/></svg>