<svg id="fullheart" xmlns="http://www.w3.org/2000/svg" viewBox="0 0 162.66 154.13"><path id="fullheart-2" data-name="fullheart" d="M456.34,199.47c7.84-16.4,9.63-33.31,3.24-50.59-12.5-33.78-52.66-33.21-69-14.94-2,2.24-4.13,4.37-6.06,6.66-1.62,1.91-3,2-4.62,0-1.87-2.21-3.94-4.26-5.85-6.43-16.36-18.56-56.72-19.19-69.26,14.61-7.45,20.11-3.94,39.2,6.67,57.2C328.78,235.42,355,255.88,382,275.64c13.74-9.09,33.55-25.4,45.46-37.38C439,226.72,449.26,214.26,456.34,199.47Z" transform="translate(-300.8 -121.51)"/></svg>