<svg id="Calque_1" data-name="Calque 1" xmlns="http://www.w3.org/2000/svg" viewBox="0 0 48.86 62.07"><path id="fumée_d" data-name="fumée d" d="M817.75,462.34c-1-8-.46-15.87,2.64-23.27,3.88-9.23,4-18.15-1.39-27,5.15,1.79,10.06,8.77,10,15.38-.05,4-.7,8.58-2.66,12C822.13,446.64,818,453.68,817.75,462.34Z" transform="translate(-780.11 -400.99)"/><path id="fumée_g" data-name="fumée g" d="M780.67,463.06c-1-7-.88-14,1.71-20.58,4-10.12,5.91-20-1.08-30.49,11,6.5,13.81,19.22,7.05,29.83-3.07,4.83-5.9,9.68-6.85,15.42C781.18,459.17,781,461.11,780.67,463.06Z" transform="translate(-780.11 -400.99)"/><path id="fumée_m" data-name="fumée m" d="M799.67,452.06c-1-7-.88-14,1.71-20.58,4-10.12,5.91-20-1.08-30.49,11,6.5,13.81,19.22,7.05,29.83-3.07,4.83-5.9,9.68-6.85,15.42C800.18,448.17,800,450.11,799.67,452.06Z" transform="translate(-780.11 -400.99)"/></svg>