<svg id="Calque_1" data-name="Calque 1" xmlns="http://www.w3.org/2000/svg" viewBox="0 0 147.63 196.65"><path id="fumée_d" data-name="fumée d" d="M817.75,462.34c-1-8-.46-15.87,2.64-23.27,3.88-9.23,4-18.15-1.39-27,5.15,1.79,10.06,8.77,10,15.38-.05,4-.7,8.58-2.66,12C822.13,446.64,818,453.68,817.75,462.34Z" transform="translate(-720.39 -400.99)"/><path id="fumée_g" data-name="fumée g" d="M780.67,463.06c-1-7-.88-14,1.71-20.58,4-10.12,5.91-20-1.08-30.49,11,6.5,13.81,19.22,7.05,29.83-3.07,4.83-5.9,9.68-6.85,15.42C781.18,459.17,781,461.11,780.67,463.06Z" transform="translate(-720.39 -400.99)"/><path id="fumée_m" data-name="fumée m" d="M799.67,452.06c-1-7-.88-14,1.71-20.58,4-10.12,5.91-20-1.08-30.49,11,6.5,13.81,19.22,7.05,29.83-3.07,4.83-5.9,9.68-6.85,15.42C800.18,448.17,800,450.11,799.67,452.06Z" transform="translate(-720.39 -400.99)"/><path id="plat" d="M749.38,518.31H850.9c-.39-2.93-.59-5.61-1.12-8.23-5-24.85-23.67-42-49.77-45.69a10.5,10.5,0,0,1-2.49-1.05A10.37,10.37,0,0,1,799,461a9,9,0,0,0,2.91-4.73,8.77,8.77,0,0,0-.51-5A8.87,8.87,0,0,0,799,448a10.35,10.35,0,0,0-2.69-.89,8.76,8.76,0,0,0-6.66,1.16,7.74,7.74,0,0,0-2.3,2.58,7.92,7.92,0,0,0,1.45,9.61,21.24,21.24,0,0,1,2.07,2.94c-1.14.39-2.28.8-3.43,1.17a9.33,9.33,0,0,1-1.18.18A56.57,56.57,0,0,0,738.42,511c-.4,2.4-.54,4.84-.82,7.4h4.29a59.87,59.87,0,0,1,12.68-29.92c7-8.66,20.89-18,26.79-17.9C762.05,480.67,751.32,496.34,749.38,518.31Zm39.3-63.63a5.61,5.61,0,0,1,5.53-5.49,5.52,5.52,0,0,1,5.47,5.51,5.46,5.46,0,0,1-5.49,5.45A5.53,5.53,0,0,1,788.68,454.68Zm-68,66.09h147l.37.58c-1.43.81-2.77,2-4.31,2.37-8,1.77-16,3.28-24,5-1.23.26-2.3,1.24-3.52,1.56a14.66,14.66,0,0,1-4.88.68c-2.79-.24-4.75.23-5.54,3.31-1.12,4.41-2.91,8.68-3.6,13.14-.77,4.89,1.15,9.38,3.9,13.48.59.88,1.19,2.28.9,3.15-2.06,6.22-4.36,12.37-6.75,19-3.79-2.51-7.27-4.91-10.87-7.15-2.52-1.56-5-3.39-7.83-4.23-7.09-2.15-13.25-5.24-17.92-11.37-5.48-7.2-11.43-14.06-17.48-20.8-4-4.51-8.61-8.47-15.3-8.54-1,0-2-1-3.09-1.57a11.65,11.65,0,0,0-2.53-1.14c-6.52-1.4-13.07-2.64-19.56-4.15-1.85-.43-3.53-1.6-5.3-2.43Zm50.92,10.36c4,2.53,7.38,4.45,10.54,6.67a35.44,35.44,0,0,0,16,6.29c2.72.34,6.44.44,8.22-1.08,3.72-3.17,6.45-7.5,10-11.88Zm75.08,66.51c-8-2.1-15.71-4.06-23.37-6.15-2.41-.66-1.46-2.56-.86-3.92C824,584,826,580.64,827.37,577c1.82-4.71,3.23-9.58,5-14.85,4.31,1.09,8.81,2.2,13.28,3.43a2,2,0,0,1,1,1.55C846.69,577.21,846.67,587.25,846.67,597.64ZM794.19,460.15a5.53,5.53,0,0,1-5.51-5.47,5.61,5.61,0,0,1,5.53-5.49,5.52,5.52,0,0,1,5.47,5.51A5.46,5.46,0,0,1,794.19,460.15Zm-22.6,71h44.75c-3.56,4.38-6.29,8.71-10,11.88-1.78,1.52-5.5,1.42-8.22,1.08a35.44,35.44,0,0,1-16-6.29C779,535.58,775.61,533.66,771.59,531.13Z" transform="translate(-720.39 -400.99)"/></svg>